<svg width="177" height="177" viewBox="0 0 177 177" fill="none" xmlns="http://www.w3.org/2000/svg">
<path d="M88.0589 142.117C78.4588 142.116 69.0387 139.511 60.8025 134.578C52.5662 129.646 45.8222 122.572 41.2889 114.11C36.7557 105.647 34.603 96.1135 35.0602 86.5242C35.5175 76.9349 38.5675 67.6493 43.8853 59.6566C49.5342 51.1854 57.4927 44.5107 66.8181 40.4231L70.8565 56.8269L70.9448 56.7846C63.7215 60.6421 57.9861 66.7921 54.6415 74.2667C51.2969 81.7413 50.533 90.1159 52.47 98.0723C54.4071 106.029 58.935 113.115 65.3412 118.216C71.7474 123.316 79.6679 126.142 87.856 126.247L91.6948 141.995C90.4857 142.075 89.2634 142.117 88.0589 142.117ZM109.605 137.56L105.786 121.918C111.589 118.804 116.452 114.192 119.869 108.562C123.286 102.932 125.132 96.4895 125.216 89.9043L106.051 94.5853C105.151 97.6454 103.476 100.421 101.189 102.645C98.8346 104.922 95.9062 106.517 92.7162 107.259C91.2724 107.615 89.791 107.795 88.3041 107.796C85.5648 107.799 82.8592 107.191 80.3839 106.018C77.9087 104.844 75.726 103.134 73.9945 101.011C72.2629 98.8882 71.026 96.4064 70.3735 93.7459C69.7211 91.0854 69.6695 88.3129 70.2226 85.6299C70.7757 82.947 71.9195 80.4209 73.5709 78.2353C75.2224 76.0497 77.34 74.2594 79.7698 72.9946C82.1997 71.7297 84.8809 71.0221 87.6184 70.923C90.356 70.824 93.0813 71.336 95.5962 72.422C97.869 73.4021 99.9227 74.8271 101.636 76.613L120.801 71.932C117.673 66.1112 113.039 61.2373 107.384 57.8191C101.728 54.401 95.2587 52.564 88.6508 52.5002L88.74 52.4579L84.7164 36.1036C85.8313 36.0347 86.9559 36 88.0589 36C97.6451 36.0016 107.052 38.5997 115.28 43.5185C123.508 48.4373 130.25 55.493 134.789 63.936C139.329 72.3791 141.497 81.8941 141.063 91.4705C140.629 101.047 137.609 110.327 132.324 118.324C126.733 126.765 118.853 133.438 109.606 137.561L109.605 137.56Z" fill="#1CF567"/>
</svg>
