<svg width="621" height="149" viewBox="0 0 621 149" fill="none" xmlns="http://www.w3.org/2000/svg">
<path d="M74.0628 128.881C64.3026 128.879 54.7256 126.23 46.352 121.216C37.9784 116.201 31.122 109.009 26.5132 100.406C21.9043 91.8024 19.7158 82.1097 20.1806 72.3606C20.6455 62.6115 23.7463 53.1711 29.1528 45.0451C34.8959 36.4327 42.987 29.6467 52.4679 25.491L56.5736 42.1683L56.6634 42.1253C49.3197 46.047 43.4887 52.2996 40.0883 59.8988C36.688 67.498 35.9113 76.0122 37.8806 84.1012C39.85 92.1902 44.4534 99.3946 50.9664 104.58C57.4793 109.766 65.5319 112.639 73.8565 112.746L77.7593 128.756C76.53 128.838 75.2874 128.881 74.0628 128.881ZM95.9676 124.248L92.085 108.344C97.9848 105.178 102.929 100.49 106.403 94.7658C109.877 89.042 111.754 82.492 111.839 75.797L92.3545 80.5561C91.4393 83.6672 89.7368 86.4894 87.4115 88.7499C85.0181 91.065 82.0409 92.6865 78.7978 93.4414C77.3298 93.8026 75.8238 93.9857 74.3121 93.9869C71.5271 93.9897 68.7764 93.3721 66.2599 92.1789C63.7434 90.9857 61.5243 89.2469 59.7639 87.0888C58.0035 84.9307 56.7459 82.4076 56.0826 79.7027C55.4193 76.9978 55.3669 74.1791 55.9292 71.4514C56.4914 68.7237 57.6543 66.1556 59.3333 63.9335C61.0123 61.7115 63.1652 59.8914 65.6355 58.6054C68.1059 57.3195 70.8318 56.6 73.615 56.4994C76.3982 56.3987 79.1689 56.9192 81.7257 58.0233C84.0364 59.0198 86.1244 60.4685 87.8667 62.2842L107.351 57.5251C104.171 51.6073 99.4594 46.6521 93.7097 43.177C87.9599 39.7019 81.3826 37.8343 74.6646 37.7694L74.7553 37.7264L70.6646 21.0994C71.798 21.0294 72.9414 20.9941 74.0628 20.9941C83.8088 20.9957 93.3723 23.6372 101.737 28.638C110.103 33.6388 116.957 40.8121 121.572 49.3959C126.188 57.9797 128.392 67.6534 127.951 77.3893C127.509 87.1253 124.439 96.5599 119.066 104.691C113.381 113.272 105.37 120.056 95.9689 124.248L95.9676 124.248Z" fill="#42FB76"/>
<path d="M235.114 101V64.4789L215.813 101H202.341L183.04 64.4789V101H169V49H188.073L209.077 88.3595L230.08 49H249.078V101H235.114Z" fill="#031A28"/>
<path d="M307.131 91.1601H278.142L273.26 101H257.593L284.803 49H300.47L327.68 101H312.013L307.131 91.1601ZM283.175 81.0175H302.173L292.712 61.8675L283.175 81.0175Z" fill="#031A28"/>
<path d="M350.235 101H336.195V49H371.39C375.174 49 378.378 49.3911 381.002 50.1732C383.651 50.9554 385.796 52.0655 387.436 53.5036C389.101 54.9418 390.299 56.6827 391.031 58.7263C391.788 60.7448 392.166 63.0029 392.166 65.5007C392.166 67.6958 391.851 69.6133 391.22 71.2533C390.615 72.8933 389.782 74.3062 388.722 75.492C387.688 76.6526 386.477 77.6366 385.089 78.444C383.702 79.2513 382.239 79.9199 380.7 80.4498L397.729 101H381.305L365.562 81.8501H350.235V101ZM377.975 65.425C377.975 64.4158 377.836 63.558 377.558 62.8515C377.306 62.1451 376.852 61.5774 376.196 61.1485C375.54 60.6943 374.657 60.3663 373.547 60.1645C372.462 59.9626 371.1 59.8617 369.46 59.8617H350.235V70.9884H369.46C371.1 70.9884 372.462 70.8874 373.547 70.6856C374.657 70.4837 375.54 70.1684 376.196 69.7394C376.852 69.2853 377.306 68.705 377.558 67.9985C377.836 67.2921 377.975 66.4343 377.975 65.425Z" fill="#031A28"/>
<path d="M421.912 68.8312L450.673 49H469.482L434.476 73.9403L471.828 101H451.354L421.912 79.3901V101H407.796V49H421.912V68.8312Z" fill="#031A28"/>
<path d="M480.002 101V49H532.643V60.0888H494.421V68.6798H530.675V79.7686H494.421V89.9112H533.173V101H480.002Z" fill="#031A28"/>
<path d="M575.899 60.3159V101H561.859V60.3159H539.796V49H598V60.3159H575.899Z" fill="#031A28"/>
</svg>
