<svg width="680" height="177" viewBox="0 0 680 177" fill="none" xmlns="http://www.w3.org/2000/svg">
<path d="M89.0589 142.117C79.4588 142.116 70.0387 139.511 61.8025 134.578C53.5662 129.646 46.8222 122.572 42.2889 114.11C37.7557 105.647 35.603 96.1135 36.0602 86.5242C36.5175 76.9349 39.5675 67.6493 44.8853 59.6566C50.5342 51.1854 58.4927 44.5107 67.8181 40.4231L71.8565 56.8269L71.9448 56.7846C64.7215 60.6421 58.9861 66.7921 55.6415 74.2667C52.2969 81.7413 51.533 90.1159 53.47 98.0723C55.4071 106.029 59.935 113.115 66.3412 118.216C72.7474 123.316 80.6679 126.142 88.856 126.247L92.6948 141.995C91.4857 142.075 90.2634 142.117 89.0589 142.117ZM110.605 137.56L106.786 121.918C112.589 118.804 117.452 114.192 120.869 108.562C124.286 102.932 126.132 96.4895 126.216 89.9043L107.051 94.5853C106.151 97.6454 104.476 100.421 102.189 102.645C99.8346 104.922 96.9062 106.517 93.7162 107.259C92.2724 107.615 90.791 107.795 89.3041 107.796C86.5648 107.799 83.8592 107.191 81.3839 106.018C78.9087 104.844 76.726 103.134 74.9945 101.011C73.2629 98.8882 72.026 96.4064 71.3735 93.7459C70.7211 91.0854 70.6695 88.3129 71.2226 85.6299C71.7757 82.947 72.9195 80.4209 74.5709 78.2353C76.2224 76.0497 78.34 74.2594 80.7698 72.9946C83.1997 71.7297 85.8809 71.0221 88.6184 70.923C91.356 70.824 94.0813 71.336 96.5962 72.422C98.869 73.4021 100.923 74.8271 102.636 76.613L121.801 71.932C118.673 66.1112 114.039 61.2373 108.384 57.8191C102.728 54.401 96.2587 52.564 89.6508 52.5002L89.74 52.4579L85.7164 36.1036C86.8313 36.0347 87.9559 36 89.0589 36C98.6451 36.0016 108.052 38.5997 116.28 43.5185C124.508 48.4373 131.25 55.493 135.789 63.936C140.329 72.3791 142.497 81.8941 142.063 91.4705C141.629 101.047 138.609 110.327 133.324 118.324C127.733 126.765 119.853 133.438 110.606 137.561L110.605 137.56Z" fill="#1CF567"/>
<path d="M218.193 106.304V88.8527H189.442V106.304H178.142V64.457H189.442V79.6853H218.193V64.457H229.492V106.304H218.193Z" fill="white"/>
<path d="M276.212 98.3856H252.883L248.954 106.304H236.345L258.243 64.457H270.852L292.75 106.304H280.141L276.212 98.3856ZM256.933 90.2232H272.223L264.608 74.8122L256.933 90.2232Z" fill="white"/>
<path d="M339.136 106.304L310.902 77.5533V106.304H299.603V64.457H311.877L340.141 93.3298V64.457H351.379V106.304H339.136Z" fill="white"/>
<path d="M415.734 85.3502C415.734 88.0303 415.439 90.4161 414.85 92.5075C414.262 94.5785 413.429 96.3856 412.353 97.9287C411.297 99.4719 410.018 100.781 408.516 101.858C407.033 102.934 405.378 103.797 403.551 104.446C401.724 105.096 399.754 105.573 397.643 105.878C395.531 106.162 393.328 106.304 391.033 106.304H364.475V64.457H390.973C393.267 64.457 395.47 64.6093 397.582 64.9138C399.693 65.1981 401.663 65.6651 403.49 66.3148C405.338 66.9646 407.013 67.8275 408.516 68.9036C410.018 69.9595 411.297 71.2691 412.353 72.8325C413.429 74.3757 414.262 76.1828 414.85 78.2538C415.439 80.3248 415.734 82.6903 415.734 85.3502ZM404.343 85.3502C404.343 83.34 404.079 81.5939 403.551 80.1116C403.043 78.6294 402.211 77.4112 401.054 76.4569C399.917 75.4823 398.424 74.7614 396.577 74.2944C394.729 73.8071 392.475 73.5635 389.815 73.5635H375.775V97.1978H389.815C392.475 97.1978 394.729 96.9643 396.577 96.4973C398.424 96.01 399.917 95.279 401.054 94.3044C402.211 93.3095 403.043 92.0709 403.551 90.5887C404.079 89.1065 404.343 87.3603 404.343 85.3502Z" fill="white"/>
<path d="M472.17 103.441C470.708 104.05 469.236 104.599 467.753 105.086C466.271 105.573 464.738 105.99 463.155 106.335C461.571 106.7 459.896 106.974 458.129 107.157C456.383 107.34 454.505 107.431 452.495 107.431C448.231 107.431 444.302 106.974 440.708 106.061C437.135 105.147 434.048 103.776 431.449 101.949C428.871 100.101 426.861 97.8069 425.419 95.0658C423.977 92.3044 423.256 89.0862 423.256 85.4111C423.256 81.736 423.977 78.5279 425.419 75.7868C426.861 73.0254 428.871 70.731 431.449 68.9036C434.048 67.0559 437.135 65.6752 440.708 64.7616C444.302 63.8479 448.231 63.391 452.495 63.391C454.505 63.391 456.383 63.4824 458.129 63.6651C459.896 63.8479 461.571 64.122 463.155 64.4874C464.738 64.8326 466.271 65.2489 467.753 65.7362C469.236 66.2235 470.708 66.7717 472.17 67.3808V77.5533C471.012 76.9239 469.794 76.3046 468.515 75.6954C467.236 75.066 465.825 74.5076 464.281 74.0203C462.738 73.5127 461.043 73.1066 459.195 72.8021C457.348 72.4772 455.266 72.3148 452.952 72.3148C449.398 72.3148 446.444 72.6803 444.089 73.4112C441.754 74.1422 439.886 75.1168 438.485 76.335C437.084 77.5533 436.099 78.9543 435.53 80.538C434.962 82.1015 434.678 83.7258 434.678 85.4111C434.678 86.5278 434.799 87.6344 435.043 88.7308C435.287 89.807 435.693 90.8323 436.261 91.807C436.83 92.7613 437.571 93.6445 438.485 94.4567C439.398 95.2688 440.535 95.9693 441.896 96.5582C443.256 97.147 444.84 97.614 446.647 97.9592C448.474 98.284 450.576 98.4465 452.952 98.4465C455.266 98.4465 457.348 98.3043 459.195 98.0201C461.043 97.7155 462.738 97.3196 464.281 96.8323C465.825 96.345 467.236 95.7968 468.515 95.1876C469.794 94.5582 471.012 93.9186 472.17 93.2689V103.441Z" fill="white"/>
<path d="M516.636 98.3856H493.307L489.378 106.304H476.769L498.667 64.457H511.276L533.174 106.304H520.565L516.636 98.3856ZM497.357 90.2232H512.646L505.032 74.8122L497.357 90.2232Z" fill="white"/>
<path d="M578.585 76.2437C577.793 75.8579 576.747 75.4213 575.448 74.934C574.148 74.4467 572.676 73.9899 571.032 73.5635C569.387 73.1168 567.6 72.7513 565.671 72.4671C563.742 72.1625 561.763 72.0102 559.732 72.0102C558.108 72.0102 556.717 72.061 555.56 72.1625C554.423 72.264 553.458 72.396 552.666 72.5584C551.895 72.7209 551.275 72.9138 550.808 73.1371C550.362 73.3401 550.017 73.5533 549.773 73.7767C549.529 74 549.367 74.2234 549.286 74.4467C549.225 74.6701 549.194 74.8731 549.194 75.0559C549.194 75.665 549.499 76.2031 550.108 76.6701C550.717 77.1168 551.55 77.5228 552.605 77.8883C553.661 78.2335 554.89 78.5685 556.291 78.8934C557.692 79.1979 559.174 79.5228 560.737 79.868C562.321 80.1929 563.945 80.5583 565.61 80.9644C567.296 81.3502 568.92 81.8071 570.483 82.335C572.067 82.8629 573.56 83.4822 574.961 84.1928C576.362 84.8832 577.59 85.6953 578.646 86.6293C579.702 87.5633 580.534 88.6395 581.143 89.8577C581.752 91.076 582.057 92.4668 582.057 94.0303C582.057 96.0404 581.702 97.7663 580.991 99.2079C580.28 100.65 579.326 101.868 578.128 102.863C576.95 103.858 575.58 104.66 574.016 105.269C572.453 105.858 570.808 106.314 569.082 106.639C567.377 106.964 565.641 107.177 563.874 107.279C562.128 107.38 560.463 107.431 558.879 107.431C554.737 107.431 550.9 107.086 547.367 106.396C543.854 105.726 540.748 104.883 538.047 103.868V93.878C540.829 95.4211 543.996 96.6292 547.55 97.5023C551.123 98.3754 554.94 98.812 559.001 98.812C561.397 98.812 563.346 98.6901 564.849 98.4465C566.372 98.1825 567.56 97.8577 568.412 97.4719C569.265 97.0658 569.844 96.6292 570.148 96.1622C570.453 95.6952 570.605 95.2485 570.605 94.8222C570.605 94.1521 570.301 93.5734 569.692 93.0861C569.082 92.5785 568.25 92.142 567.194 91.7765C566.138 91.3907 564.91 91.0455 563.509 90.741C562.108 90.4161 560.615 90.1014 559.032 89.7968C557.468 89.472 555.854 89.1268 554.189 88.7613C552.524 88.3958 550.9 87.9694 549.316 87.4821C547.753 86.9745 546.27 86.3958 544.869 85.7461C543.468 85.0761 542.24 84.2943 541.184 83.401C540.128 82.4873 539.296 81.4416 538.687 80.2639C538.078 79.066 537.773 77.6853 537.773 76.1218C537.773 74.2741 538.098 72.6803 538.748 71.3402C539.397 70.0001 540.271 68.863 541.367 67.929C542.484 66.9747 543.763 66.2032 545.204 65.6143C546.666 65.0255 548.199 64.5687 549.803 64.2438C551.407 63.9189 553.032 63.6956 554.676 63.5737C556.321 63.4519 557.885 63.391 559.367 63.391C560.991 63.391 562.656 63.4722 564.362 63.6347C566.087 63.7971 567.783 64.0306 569.448 64.3352C571.113 64.6194 572.717 64.9544 574.26 65.3402C575.823 65.726 577.265 66.1321 578.585 66.5585V76.2437Z" fill="white"/>
<path d="M632.828 106.304V88.8527H604.077V106.304H592.778V64.457H604.077V79.6853H632.828V64.457H644.127V106.304H632.828Z" fill="white"/>
</svg>
